<svg width="51" height="59" viewBox="0 0 51 59" fill="none" xmlns="http://www.w3.org/2000/svg">
<path d="M3.64286 36.875C3.64286 38.5651 3.86105 40.1976 4.29743 41.7725C4.73382 43.3473 5.34096 44.8166 6.11886 46.1802C6.89676 47.5438 7.84542 48.7826 8.96484 49.8965C10.0843 51.0104 11.3175 51.9707 12.6646 52.7773C14.0117 53.584 15.4632 54.2082 17.019 54.6499C18.5748 55.0916 20.1875 55.3125 21.8571 55.3125C23.1094 55.3125 24.3521 55.1877 25.5854 54.938C26.8186 54.6883 28.0045 54.2946 29.1429 53.7568V57.7036C26.8092 58.5679 24.3806 59 21.8571 59C19.846 59 17.9107 58.7407 16.0513 58.2222C14.192 57.7036 12.4559 56.9546 10.8432 55.9751C9.23047 54.9956 7.75056 53.8433 6.40346 52.5181C5.05636 51.1929 3.91797 49.7044 2.98828 48.0527C2.05859 46.401 1.32812 44.6341 0.796875 42.752C0.265625 40.8698 0 38.9108 0 36.875C0 35.2617 0.170759 33.6772 0.512277 32.1216C0.853795 30.5659 1.3471 29.0775 1.99219 27.6562C2.63728 26.235 3.43415 24.8906 4.38281 23.623C5.33147 22.3555 6.40346 21.1839 7.59877 20.1084C7.71261 20.819 7.88337 21.568 8.11105 22.3555C8.33873 23.1429 8.61384 23.9207 8.93638 24.689C9.25893 25.4572 9.61942 26.1966 10.0179 26.9072C10.4163 27.6178 10.8527 28.242 11.327 28.7798C11.7444 29.2599 12.2377 29.5 12.8069 29.5C13.3192 29.5 13.7461 29.3175 14.0876 28.9526C14.4291 28.5877 14.6094 28.146 14.6283 27.6274C14.6283 27.4162 14.5999 27.2241 14.543 27.0513C14.486 26.8784 14.3912 26.7056 14.2584 26.5327C13.1959 24.9578 12.38 23.3926 11.8108 21.8369C11.2416 20.2812 10.9475 18.5335 10.9286 16.5938C10.9286 14.3083 11.3555 12.1572 12.2093 10.1406C13.0631 8.12402 14.2394 6.3667 15.7383 4.86865C17.2372 3.37061 18.9732 2.18945 20.9464 1.3252C22.9196 0.460938 25.0446 0.0192057 27.3214 0H29.1429V1.84375C29.1429 5.24316 29.769 8.41211 31.0212 11.3506C32.2734 14.2891 34.0759 16.9587 36.4286 19.3594C38.7812 21.7601 40.5837 24.4297 41.8359 27.3682C43.0882 30.3066 43.7143 33.4756 43.7143 36.875H40.0714C40.0714 33.9557 39.5402 31.2573 38.4777 28.7798C37.4152 26.3022 35.8783 24.036 33.8672 21.981C31.4007 19.4458 29.4654 16.6802 28.0614 13.6841C26.6574 10.688 25.8225 7.39421 25.5569 3.80273C23.9821 4.014 22.5307 4.49414 21.2026 5.24316C19.8744 5.99219 18.7076 6.94287 17.702 8.09521C16.6964 9.24756 15.928 10.5439 15.3968 11.9844C14.8655 13.4248 14.5904 14.9613 14.5714 16.5938C14.5714 18.111 14.7896 19.465 15.226 20.6558C15.6624 21.8465 16.3075 23.0565 17.1613 24.2856C17.5218 24.8234 17.7969 25.342 17.9866 25.8413C18.1763 26.3407 18.2807 26.936 18.2997 27.6274C18.2997 28.3957 18.1574 29.1159 17.8728 29.7881C17.5882 30.4603 17.1897 31.0461 16.6775 31.5454C16.1652 32.0448 15.5865 32.4481 14.9414 32.7554C14.2963 33.0627 13.5848 33.2067 12.8069 33.1875C11.9342 33.1875 11.1657 33.0243 10.5017 32.6978C9.83761 32.3713 9.24944 31.9295 8.73717 31.3726C8.22489 30.8156 7.76004 30.1914 7.34263 29.5C6.92522 28.8086 6.55525 28.1172 6.2327 27.4258C5.37891 28.8662 4.73382 30.3835 4.29743 31.9775C3.86105 33.5716 3.64286 35.2041 3.64286 36.875ZM51 47.9375V51.625H43.7143V59H40.0714V51.625H32.7857V47.9375H40.0714V40.5625H43.7143V47.9375H51Z" fill="white"/>
</svg>
