<svg width="44" height="59" viewBox="0 0 44 59" fill="none" xmlns="http://www.w3.org/2000/svg">
<path d="M29.3333 1.84375C29.3333 5.28158 29.9635 8.45052 31.224 11.3506C32.4844 14.2507 34.2986 16.9202 36.6667 19.3594C39.0347 21.7985 40.849 24.4681 42.1094 27.3682C43.3698 30.2682 44 33.4372 44 36.875C44 38.9108 43.7422 40.8698 43.2266 42.752C42.7109 44.6341 41.9661 46.3914 40.9922 48.0239C40.0182 49.6564 38.8724 51.1545 37.5547 52.5181C36.237 53.8817 34.7569 55.034 33.1146 55.9751C31.4722 56.9162 29.7153 57.6556 27.8438 58.1934C25.9722 58.7311 24.0243 59 22 59C19.9757 59 18.0278 58.7407 16.1563 58.2222C14.2847 57.7036 12.5373 56.9546 10.9141 55.9751C9.2908 54.9956 7.80122 53.8433 6.44531 52.5181C5.08941 51.1929 3.94358 49.7044 3.00781 48.0527C2.07205 46.401 1.33681 44.6341 0.802083 42.752C0.267361 40.8698 0 38.9108 0 36.875C0 35.2617 0.171875 33.6772 0.515625 32.1216C0.859375 30.5659 1.3559 29.0775 2.00521 27.6562C2.65451 26.235 3.4566 24.881 4.41146 23.5942C5.36632 22.3075 6.44531 21.1455 7.64844 20.1084C7.78212 20.8382 7.96354 21.5872 8.19271 22.3555C8.42188 23.1237 8.68924 23.8919 8.99479 24.6602C9.30035 25.4284 9.66319 26.1582 10.0833 26.8496C10.5035 27.541 10.9427 28.1844 11.401 28.7798C11.783 29.2599 12.2795 29.5 12.8906 29.5C13.4063 29.5 13.8359 29.3175 14.1797 28.9526C14.5234 28.5877 14.7049 28.146 14.724 27.6274C14.724 27.4162 14.6953 27.2241 14.638 27.0513C14.5807 26.8784 14.4852 26.7056 14.3516 26.5327C13.8168 25.7453 13.349 24.9674 12.9479 24.1992C12.5469 23.431 12.1936 22.6436 11.888 21.8369C11.5825 21.0303 11.3628 20.1948 11.2292 19.3306C11.0955 18.4663 11.0191 17.554 11 16.5938C11 14.3083 11.4297 12.1572 12.2891 10.1406C13.1484 8.12402 14.3325 6.3667 15.8411 4.86865C17.3498 3.37061 19.0972 2.18945 21.0833 1.3252C23.0694 0.460938 25.2083 0.0192057 27.5 0H29.3333V1.84375ZM22 55.3125C24.5399 55.3125 26.9175 54.8324 29.1328 53.8721C31.3481 52.9118 33.296 51.5962 34.9766 49.9253C36.6571 48.2544 37.9653 46.305 38.901 44.0771C39.8368 41.8493 40.3142 39.4486 40.3333 36.875C40.3333 33.9749 39.7986 31.2765 38.7292 28.7798C37.6597 26.283 36.1128 24.0168 34.0885 21.981C31.6059 19.465 29.658 16.6898 28.2448 13.6553C26.8316 10.6208 25.9913 7.33659 25.724 3.80273C24.1389 4.014 22.678 4.49414 21.3411 5.24316C20.0043 5.99219 18.8299 6.94287 17.8177 8.09521C16.8056 9.24756 16.0321 10.5439 15.4974 11.9844C14.9627 13.4248 14.6858 14.9613 14.6667 16.5938C14.6667 18.0918 14.8863 19.4458 15.3255 20.6558C15.7648 21.8657 16.4141 23.0757 17.2734 24.2856C17.6363 24.785 17.9132 25.3035 18.1042 25.8413C18.2951 26.3791 18.4002 26.9744 18.4193 27.6274C18.4193 28.3957 18.276 29.1159 17.9896 29.7881C17.7031 30.4603 17.3021 31.0461 16.7865 31.5454C16.2708 32.0448 15.6884 32.4481 15.0391 32.7554C14.3898 33.0627 13.6736 33.2067 12.8906 33.1875C12.0122 33.1875 11.2387 33.0243 10.5703 32.6978C9.90191 32.3713 9.3099 31.9295 8.79427 31.3726C8.27865 30.8156 7.82031 30.1914 7.41927 29.5C7.01823 28.8086 6.63628 28.1172 6.27344 27.4258C5.39497 28.8278 4.74566 30.3354 4.32552 31.9487C3.90538 33.562 3.68576 35.2041 3.66667 36.875C3.66667 39.4294 4.1441 41.8205 5.09896 44.0483C6.05382 46.2762 7.36198 48.2352 9.02344 49.9253C10.6849 51.6154 12.6233 52.931 14.8385 53.8721C17.0538 54.8132 19.441 55.2933 22 55.3125Z" fill="white"/>
</svg>
